<svg xmlns="http://www.w3.org/2000/svg" viewBox="0 0 100 108" fill="none"
     stroke="currentColor" stroke-width="4.6" stroke-linecap="round" stroke-linejoin="round" aria-label="Meltiva">
  <!-- rounded hexagon -->
  <path d="M50 6
           L86 26
           Q90 28 90 33
           L90 71
           Q90 76 86 78
           L54 96
           Q50 98 46 96
           L14 78
           Q10 76 10 71
           L10 33
           Q10 28 14 26
           Z" />
  <!-- melt 'M' wave with centre drip -->
  <path d="M30 60
           Q30 44 39 44
           Q47 44 47 58
           Q47 50 53 50
           Q59 50 59 60" />
  <!-- centre drip falling through the bottom -->
  <path d="M44.5 56
           Q44.5 74 44.5 86
           Q44.5 92 49 92
           Q53.5 92 53.5 86
           L53.5 62" />
</svg>
